<svg width="117" height="43" viewBox="0 0 117 43" fill="none" xmlns="http://www.w3.org/2000/svg">
<path d="M72.1898 34.9963C59.1642 34.9963 65.9365 34.9963 58.2226 34.9963C50.5088 34.9963 56.6533 34.9963 44.2555 34.9963C44.2555 27.2825 50.5088 21.0292 58.2226 21.0292C65.9365 21.0292 72.1898 27.2825 72.1898 34.9963Z" fill="#BC1515"/>
<line x1="2.51095" y1="34.6533" x2="113.62" y2="34.6533" stroke="white"/>
<line x1="72.8175" y1="33.3978" x2="91.6496" y2="33.3978" stroke="white"/>
<line y1="-0.5" x2="18.8321" y2="-0.5" transform="matrix(-1 0 0 1 43.3139 33.8978)" stroke="white"/>
<line x1="71.3121" y1="28.0106" x2="88.5033" y2="18.0852" stroke="white"/>
<line y1="-0.5" x2="19.8508" y2="-0.5" transform="matrix(-0.866025 -0.5 -0.5 0.866025 44.5694 28.4436)" stroke="white"/>
<line x1="66.1306" y1="22.2514" x2="77.5165" y2="5.9906" stroke="white"/>
<line y1="-0.5" x2="19.8508" y2="-0.5" transform="matrix(-0.573576 -0.819152 -0.819152 0.573576 49.5912 22.5382)" stroke="white"/>
<line x1="57.5657" y1="19.8508" x2="57.5657" y2="3.62396e-05" stroke="white"/>
<line x1="34.333" y1="28.7047" x2="43.4679" y2="30.9885" stroke="white"/>
<line y1="-0.5" x2="9.41606" y2="-0.5" transform="matrix(-0.970142 0.242536 0.242536 0.970142 81.6423 29.1898)" stroke="white"/>
<line x1="39.8776" y1="18.4566" x2="46.9498" y2="24.6732" stroke="white"/>
<line y1="-0.5" x2="9.41606" y2="-0.5" transform="matrix(-0.751083 0.660207 0.660207 0.751083 76.3066 18.8322)" stroke="white"/>
<line x1="51.0092" y1="11.4612" x2="53.8705" y2="20.432" stroke="white"/>
<line y1="-0.5" x2="9.41606" y2="-0.5" transform="matrix(-0.303878 0.952711 0.952711 0.303878 65.3212 11.6132)" stroke="white"/>
<circle cx="32.1715" cy="28.719" r="0.470803" fill="white"/>
<circle cx="0.470803" cy="34.9963" r="0.470803" fill="white"/>
<circle cx="115.661" cy="34.9963" r="0.470803" fill="white"/>
<circle cx="0.470803" cy="0.470803" r="0.470803" transform="matrix(-1 0 0 1 84.1168 28.2482)" fill="white"/>
<circle cx="37.8212" cy="17.4197" r="0.470803" fill="white"/>
<circle cx="0.470803" cy="0.470803" r="0.470803" transform="matrix(-1 0 0 1 78.4671 16.9489)" fill="white"/>
<circle cx="50.062" cy="9.25913" r="0.470803" fill="white"/>
<circle cx="0.470803" cy="0.470803" r="0.470803" transform="matrix(-1 0 0 1 66.5402 8.78833)" fill="white"/>
<line x1="38.292" y1="38.1058" x2="76.2701" y2="38.1058" stroke="#BC1515"/>
<line x1="44.5694" y1="42.5" x2="72.1898" y2="42.5" stroke="#BC1515"/>
</svg>
